<?xml version="1.0" standalone="no"?>
<!DOCTYPE svg PUBLIC "-//W3C//DTD SVG 20010904//EN"
 "http://www.w3.org/TR/2001/REC-SVG-20010904/DTD/svg10.dtd">
<svg version="1.0" xmlns="http://www.w3.org/2000/svg"
 width="1000.000000pt" height="750.000000pt" viewBox="0 0 1000.000000 750.000000"
 preserveAspectRatio="xMidYMid meet">

<g transform="translate(0.000000,750.000000) scale(0.100000,-0.100000)"
fill="#000000" stroke="none">
<path d="M4775 6731 c-96 -27 -139 -46 -217 -98 -170 -112 -289 -313 -305
-515 l-6 -77 -51 -35 c-28 -20 -61 -50 -73 -69 -13 -18 -63 -72 -112 -119 -79
-77 -92 -94 -116 -160 -15 -40 -46 -107 -69 -148 l-41 -75 -3 -126 -4 -126
-51 -7 c-123 -14 -131 -12 -200 57 -47 49 -75 68 -116 82 -129 42 -250 -25
-323 -180 -32 -67 -33 -75 -33 -190 1 -147 21 -207 96 -289 80 -88 160 -114
263 -85 36 10 138 98 162 139 8 14 28 14 179 4 94 -7 178 -13 187 -13 9 -1 27
-18 39 -38 36 -58 99 -123 141 -144 22 -11 70 -48 107 -83 38 -34 84 -70 103
-78 18 -9 59 -28 92 -43 32 -15 74 -41 93 -58 l36 -32 -7 -255 c-12 -455 -26
-902 -32 -1037 l-6 -131 -43 -16 c-23 -9 -67 -32 -98 -50 -31 -19 -87 -46
-126 -61 -77 -29 -84 -33 -235 -153 -116 -91 -137 -119 -186 -249 -18 -46 -34
-83 -37 -83 -34 0 -303 159 -303 179 0 4 23 29 51 56 75 74 103 125 96 182 -4
35 -13 53 -38 78 -19 18 -234 153 -478 300 -374 225 -452 269 -490 273 -40 3
-49 0 -71 -23 -23 -24 -25 -34 -23 -108 1 -45 16 -206 33 -357 17 -151 40
-358 50 -460 23 -216 31 -248 66 -281 40 -37 133 -34 242 8 46 18 87 33 91 33
5 0 30 -28 57 -62 114 -146 365 -386 548 -523 92 -69 101 -91 91 -210 -10
-118 5 -180 63 -257 25 -35 76 -110 112 -168 37 -58 73 -106 82 -108 44 -8
125 117 183 283 16 44 30 82 32 85 2 2 13 -1 24 -8 11 -7 95 -56 187 -109 410
-236 507 -265 684 -204 136 47 721 372 959 532 277 188 513 388 680 576 52 59
108 122 125 141 l30 35 103 -38 c112 -41 160 -46 207 -22 66 34 62 13 144 781
21 202 36 381 33 397 -15 77 -100 88 -200 27 -32 -20 -157 -95 -278 -168 -643
-387 -625 -374 -625 -462 0 -51 13 -72 93 -155 l60 -61 -64 -47 c-187 -138
-478 -220 -642 -181 -213 50 -318 200 -329 469 l-3 78 45 20 c49 22 301 263
327 314 9 17 34 82 55 145 71 209 70 205 58 307 -5 50 -10 121 -10 157 0 80
-20 141 -72 225 -22 35 -53 94 -70 130 -20 46 -52 89 -101 141 -40 41 -86 96
-103 121 -19 28 -57 63 -97 88 -61 40 -65 45 -71 88 -3 25 -6 89 -6 142 l0 97
188 12 c103 6 295 19 426 28 l239 17 60 -67 c75 -84 104 -99 187 -100 51 0 76
5 116 26 173 90 240 349 145 554 -66 141 -191 216 -307 185 -53 -14 -118 -62
-152 -111 l-27 -40 -70 5 c-38 3 -236 12 -440 21 -203 9 -372 18 -374 20 -2 2
-6 54 -9 117 l-5 114 39 23 c115 71 235 226 281 364 24 72 27 96 27 221 0 157
-7 191 -64 310 -78 162 -235 298 -413 356 -93 31 -298 36 -392 10z m342 -76
c98 -19 182 -60 255 -125 142 -127 215 -320 188 -496 -13 -90 -85 -236 -144
-297 -43 -44 -123 -94 -133 -83 -3 3 27 55 66 115 110 169 116 185 116 321 0
105 -2 120 -28 175 -45 95 -101 162 -183 215 -111 73 -186 95 -314 94 -127 0
-183 -19 -303 -101 -43 -30 -81 -52 -84 -50 -2 3 26 35 63 71 104 103 254 170
391 175 17 0 67 -6 110 -14z m-25 -272 c194 -87 279 -310 189 -498 -53 -110
-52 -110 -102 -14 -44 83 -47 85 -154 157 -61 41 -124 80 -140 87 -17 7 -84
20 -150 29 -66 9 -126 19 -133 21 -19 7 10 57 67 118 53 57 98 88 162 111 62
23 198 17 261 -11z m-164 -340 c49 -34 99 -93 115 -135 4 -10 11 -18 18 -18 7
0 8 14 4 43 -7 42 -7 42 13 24 23 -21 79 -123 72 -131 -3 -2 -48 2 -100 10
-52 7 -111 14 -130 14 l-36 0 -11 63 c-9 50 -31 109 -71 190 -7 15 72 -23 126
-60z m-175 21 c23 -17 51 -44 63 -61 23 -35 59 -141 50 -150 -3 -3 -27 -8 -54
-11 l-48 -4 -38 62 c-22 35 -69 94 -105 133 l-66 70 78 -5 c66 -4 85 -10 120
-34z m-204 -39 c42 -21 191 -166 191 -185 0 -3 -23 -14 -50 -24 l-50 -18 -58
59 c-31 32 -84 81 -117 108 -33 27 -64 53 -70 57 -16 14 16 28 63 28 26 0 62
-10 91 -25z m-154 -69 c54 -26 120 -71 180 -124 l37 -33 -21 -23 c-12 -13 -32
-29 -46 -36 -21 -11 -28 -9 -73 23 -79 58 -193 108 -262 114 -33 3 -60 9 -60
13 0 8 47 52 80 73 35 24 106 21 165 -7z m-100 -140 c55 -17 205 -105 205
-120 0 -6 -16 -22 -35 -35 -33 -22 -38 -23 -110 -12 -103 15 -297 14 -367 -3
-32 -7 -58 -10 -58 -7 0 25 101 135 145 159 61 32 148 39 220 18z m858 -40
c18 -7 45 -28 60 -45 l27 -33 0 -240 0 -241 -127 6 c-71 4 -146 10 -167 13
l-39 7 6 151 c8 211 34 317 93 371 31 29 94 34 147 11z m-473 -206 c-5 -58 -9
-156 -10 -217 0 -98 -2 -113 -17 -113 -15 0 -15 14 -9 143 7 151 9 172 20 227
22 103 26 91 16 -40z m-362 45 c89 -10 91 -15 28 -73 -59 -53 -66 -56 -186
-72 -90 -13 -156 -42 -261 -115 l-79 -56 0 33 c0 19 7 57 15 85 49 165 208
230 483 198z m197 -97 l65 -52 0 -122 c0 -68 -3 -125 -7 -127 -5 -3 -78 -6
-163 -8 l-155 -4 -3 26 c-2 14 3 43 11 65 8 21 23 62 33 89 13 33 41 73 84
118 36 37 66 67 67 67 1 0 32 -23 68 -52z m-260 -110 c-22 -74 -102 -147 -188
-173 -59 -17 -217 -21 -217 -4 0 22 108 117 164 143 61 29 158 54 214 55 30 1
33 -1 27 -21z m-860 -158 c27 -10 118 -80 112 -86 -1 -2 -52 -8 -112 -14 -121
-11 -136 -19 -182 -98 -14 -24 -27 -41 -29 -39 -2 2 1 30 7 63 15 82 49 137
101 163 48 24 65 25 103 11z m3121 -21 c36 -22 86 -87 105 -136 32 -84 28
-218 -8 -287 l-17 -31 -8 55 c-37 259 -76 311 -287 386 -20 7 -7 15 46 30 60
17 125 10 169 -17z m-1096 -79 c334 -14 361 -15 655 -29 240 -12 252 -13 304
-39 66 -33 100 -74 81 -97 -18 -22 -106 -45 -170 -44 -30 0 -143 -4 -250 -10
-466 -25 -661 -32 -750 -29 l-95 3 39 18 c31 15 86 21 290 31 285 13 275 20
-59 36 -115 6 -223 13 -240 15 -20 4 -54 30 -102 77 -40 40 -73 76 -73 81 0 4
26 6 58 2 31 -3 172 -10 312 -15z m-396 -97 c53 -58 96 -110 96 -114 0 -11
-179 -213 -193 -218 -6 -2 -20 7 -31 21 -12 14 -51 60 -88 103 -38 43 -68 85
-68 94 0 13 175 221 186 221 2 0 46 -48 98 -107z m-244 77 c0 -22 -95 -115
-124 -122 -17 -3 -218 -11 -446 -18 -228 -7 -435 -15 -460 -19 -26 -4 93 -10
285 -15 182 -5 391 -11 465 -15 133 -6 135 -6 138 -30 l4 -24 -319 7 c-514 11
-957 27 -965 34 -13 13 14 80 43 108 35 34 41 34 793 69 302 13 551 27 554 30
9 9 32 5 32 -5z m-1348 -422 c-41 -16 -67 -7 -114 39 -26 26 -48 50 -48 54 0
4 40 -14 89 -39 65 -34 85 -49 73 -54z m3038 96 c0 -13 -62 -94 -90 -118 -40
-33 -64 -33 -113 1 -44 31 -46 29 54 58 31 9 73 27 95 40 41 24 54 29 54 19z
m-2289 -190 c-1 -27 -5 -51 -7 -53 -5 -6 -97 72 -102 87 -2 7 15 12 45 15 69
5 68 5 64 -49z m165 40 l51 -6 10 -132 c5 -72 8 -133 7 -134 -1 -2 -29 15 -62
37 -85 57 -106 90 -110 173 l-4 68 28 0 c16 0 52 -3 80 -6z m244 -31 c4 -4 22
-65 38 -134 17 -69 40 -150 51 -179 11 -30 19 -56 17 -58 -3 -2 -32 7 -67 19
-77 28 -133 79 -148 135 -12 46 -32 224 -26 234 5 9 125 -6 135 -17z m153 -11
c51 -34 116 -139 142 -231 17 -58 37 -202 30 -210 -4 -3 -31 7 -60 23 -61 32
-96 79 -134 181 -21 55 -60 213 -61 243 0 18 51 15 83 -6z m235 -61 c49 -25
105 -79 129 -124 9 -18 18 -65 21 -109 6 -96 -15 -278 -32 -278 -22 0 -103 86
-114 121 -6 19 -18 79 -27 133 -17 106 -34 154 -90 246 -19 32 -35 60 -35 63
0 8 97 -26 148 -52z m276 28 c9 -46 7 -131 -2 -127 -65 25 -182 83 -182 89 0
4 12 12 28 17 15 6 52 20 82 31 70 26 66 26 74 -10z m-26 -176 c107 -106 125
-237 65 -482 l-16 -65 -40 45 c-62 69 -70 96 -62 218 6 96 -3 221 -21 309 -9
46 6 41 74 -25z m196 -143 c70 -75 96 -138 96 -235 0 -90 -34 -206 -84 -283
-33 -52 -54 -52 -79 -1 -24 49 -24 71 -3 229 13 91 17 168 13 238 -3 56 -1
102 3 102 4 0 28 -23 54 -50z m-751 -970 c6 -846 2 -972 -33 -1046 -36 -73
-152 -165 -177 -140 -3 3 13 26 36 51 24 26 50 63 58 83 42 99 44 126 53 772
12 845 17 1092 26 1114 7 17 8 17 19 -5 9 -18 14 -229 18 -829z m955 731 c22
-33 45 -83 52 -111 32 -134 -38 -279 -183 -379 -27 -18 -51 -31 -54 -28 -3 3
-5 33 -6 66 0 49 6 73 35 133 50 101 76 187 90 290 6 48 15 88 19 88 4 0 25
-27 47 -59z m-597 -122 c38 -26 186 -221 213 -279 20 -43 21 -65 27 -625 6
-629 9 -663 66 -817 31 -82 103 -168 162 -191 130 -52 329 -20 569 93 133 63
209 110 307 189 91 74 74 80 156 -58 l50 -84 -28 -29 c-46 -49 -181 -155 -292
-229 -190 -128 -457 -248 -696 -313 -71 -20 -137 -36 -145 -36 -8 1 -35 27
-60 59 -25 32 -92 110 -150 173 -164 177 -200 244 -220 400 -14 118 -14 1768
1 1768 6 0 24 -9 40 -21z m744 -141 c25 -90 24 -184 -4 -242 -28 -57 -96 -118
-175 -156 -71 -33 -177 -63 -188 -52 -15 15 18 88 57 127 22 22 68 62 103 88
77 58 115 116 148 225 14 45 29 80 33 77 5 -2 16 -33 26 -67z m-406 -130 c16
-45 21 -170 9 -229 -7 -32 -15 -59 -19 -59 -9 0 -19 117 -19 223 0 86 11 112
29 65z m447 -200 c-14 -135 -68 -227 -161 -273 -34 -17 -61 -20 -170 -20
l-130 0 -6 44 c-5 41 -4 44 25 56 17 7 60 21 96 30 117 30 188 71 270 156 41
43 77 78 79 78 2 1 0 -31 -3 -71z m-3126 -252 c19 -7 177 -103 350 -214 554
-353 516 -325 506 -368 -4 -14 -67 -86 -144 -163 -118 -119 -147 -143 -212
-174 -84 -40 -294 -104 -374 -113 l-53 -6 -17 68 c-17 67 -89 565 -82 571 1 2
11 -36 21 -84 87 -429 87 -429 162 -454 62 -20 197 15 333 87 72 38 183 144
224 214 l19 33 -34 -6 c-19 -3 -83 -17 -144 -31 -116 -27 -225 -33 -287 -16
-64 18 -129 102 -218 281 -84 171 -115 254 -126 337 -6 50 -6 52 17 52 13 -1
40 -7 59 -14z m4564 -56 c-1 -54 -9 -85 -49 -180 -103 -249 -215 -440 -282
-481 -60 -37 -133 -24 -306 55 -81 36 -151 66 -157 66 -26 0 -2 -31 108 -139
150 -149 229 -191 439 -235 l63 -14 14 49 c8 26 36 139 61 251 26 112 49 205
52 208 14 15 -54 -483 -73 -528 -14 -35 -14 -35 -67 -29 -72 8 -276 71 -367
114 -65 31 -93 53 -217 179 -79 79 -143 147 -143 152 0 5 64 52 143 106 78 53
228 156 332 228 351 240 397 269 424 266 25 -3 26 -5 25 -68z m-1539 -30 c-35
-68 -84 -121 -139 -149 -37 -18 -63 -23 -126 -23 -44 0 -84 3 -90 7 -5 3 -10
39 -10 78 l0 72 127 0 c124 0 130 1 188 31 33 17 63 32 68 33 4 0 -4 -22 -18
-49z m-213 -249 c8 -7 -113 -81 -132 -81 -5 0 -10 22 -10 51 l0 51 68 -7 c37
-4 70 -10 74 -14z m-1001 -151 c23 -32 35 -80 20 -80 -19 0 -161 62 -161 70 0
12 73 40 99 37 13 -1 32 -13 42 -27z m-130 -70 c35 -11 86 -36 113 -56 l49
-36 -7 -64 c-10 -97 -9 -95 -69 -74 -29 10 -99 41 -157 69 -58 28 -126 56
-152 63 -27 6 -48 15 -48 19 0 12 86 69 128 84 51 19 70 18 143 -5z m-163
-160 c94 -36 257 -132 257 -151 0 -9 -22 -20 -58 -29 -52 -13 -67 -13 -165 5
-156 27 -179 28 -262 10 -41 -10 -88 -19 -104 -22 l-29 -6 24 43 c33 59 111
144 151 163 49 24 99 21 186 -13z m55 -235 c31 -10 57 -22 57 -25 0 -14 -136
-68 -300 -120 -91 -29 -182 -61 -203 -72 -22 -11 -41 -17 -44 -14 -8 7 14 92
37 143 20 47 49 69 124 95 68 24 244 21 329 -7z m-836 -39 c58 -43 176 -119
266 -170 26 -15 47 -31 47 -37 0 -24 -33 -139 -40 -139 -11 0 -213 154 -315
241 l-85 71 33 39 c17 21 33 39 34 39 2 0 29 -20 60 -44z m773 -131 c0 -12
-33 -71 -57 -103 -13 -18 -77 -67 -141 -109 -114 -74 -192 -126 -241 -160
l-24 -17 5 89 c5 104 30 164 80 195 71 43 378 128 378 105z m751 -124 c8 -10
57 -70 110 -132 124 -148 259 -319 259 -329 0 -10 -305 -306 -358 -349 l-40
-31 -163 154 c-217 204 -235 222 -222 238 192 247 377 468 393 468 4 0 14 -9
21 -19z m-270 -123 c-169 -205 -205 -253 -225 -301 l-22 -54 -101 40 -100 39
-7 103 c-9 125 -2 159 28 151 64 -18 156 -28 210 -24 60 5 153 44 231 97 16
11 31 18 33 16 3 -3 -19 -33 -47 -67z m-521 37 c0 -27 -41 -123 -69 -162 -23
-31 -200 -175 -322 -262 -25 -18 -28 -14 -36 47 -16 136 16 169 325 343 96 54
102 56 102 34z m-24 -287 c-14 -107 -60 -175 -191 -283 -33 -27 -84 -73 -113
-102 -29 -29 -54 -53 -56 -53 -11 0 -28 118 -23 157 6 55 36 94 131 169 62 49
241 164 255 164 2 0 0 -24 -3 -52z m-25 -318 c10 -6 19 -21 19 -33 0 -66 -68
-242 -134 -346 l-28 -43 -35 52 c-115 171 -109 241 29 337 64 44 108 54 149
33z"/>
<path d="M4825 1699 c-102 -106 -175 -191 -175 -203 0 -3 72 30 160 74 l159
80 97 -66 c53 -36 99 -63 102 -60 5 6 -54 75 -175 205 l-68 74 -100 -104z"/>
</g>
</svg>
